<?xml version="1.0" encoding="utf-8"?>
<!-- Generator: Adobe Illustrator 22.1.0, SVG Export Plug-In . SVG Version: 6.00 Build 0)  -->
<svg version="1.1" id="Layer_1" xmlns="http://www.w3.org/2000/svg" xmlns:xlink="http://www.w3.org/1999/xlink" x="0px" y="0px"
	 viewBox="0 0 500 500" style="enable-background:new 0 0 500 500;" xml:space="preserve">
<style type="text/css">
	.st0{fill:url(#SVGID_1_);}
	.st1{fill:url(#SVGID_2_);}
	.st2{fill:url(#SVGID_3_);}
	.st3{fill:#0071BC;}
	.st4{fill:#1E4B9B;}
	.st5{fill-rule:evenodd;clip-rule:evenodd;fill:#C4CCD9;}
	.st6{fill-rule:evenodd;clip-rule:evenodd;fill:#CFD3DB;}
</style>
<g>
	<g>
		
			<radialGradient id="SVGID_1_" cx="249.6155" cy="-4713.3379" r="153.7566" gradientTransform="matrix(1 0 0 0.1111 0 926.0386)" gradientUnits="userSpaceOnUse">
			<stop  offset="5.583760e-02" style="stop-color:#7C7C7D"/>
			<stop  offset="0.1574" style="stop-color:#989898"/>
			<stop  offset="0.1637" style="stop-color:#9A9A9A"/>
			<stop  offset="0.2527" style="stop-color:#B9B9B9"/>
			<stop  offset="0.3492" style="stop-color:#D3D3D3"/>
			<stop  offset="0.4569" style="stop-color:#E6E6E6"/>
			<stop  offset="0.58" style="stop-color:#F4F4F4"/>
			<stop  offset="0.7321" style="stop-color:#FDFDFD"/>
			<stop  offset="1" style="stop-color:#FFFFFF"/>
		</radialGradient>
		<path class="st0" d="M403.4,402.4c0,9.4-68.8,17.1-153.7,17.1c-84.9,0-153.7-7.7-153.7-17.1c0-9.4,68.8-17.1,153.7-17.1
			C334.5,385.3,403.4,393,403.4,402.4z"/>
		<linearGradient id="SVGID_2_" gradientUnits="userSpaceOnUse" x1="249.4537" y1="80.0535" x2="249.4537" y2="401.5772">
			<stop  offset="0" style="stop-color:#0071BC"/>
			<stop  offset="0.5" style="stop-color:#1E4B9B"/>
			<stop  offset="1" style="stop-color:#163874"/>
		</linearGradient>
		<path class="st1" d="M249.8,401.2l88.7-92.6l0.7-0.6c25.4-24.1,41.4-58.1,41.4-95.9c0-72.5-58.4-131.3-130.7-132v0
			c-0.3,0,1,0,0.7,0c-0.3,0-0.7,0-1,0c-0.3,0-0.7,0-1,0c-0.4,0,1,0,0.7,0v0c-72.3,0.7-130.7,59.5-130.7,132
			c0,37.8,15.9,71.9,41.4,95.9l0.6,0.6l88.7,92.6l0.3,0.4L249.8,401.2z"/>
		<linearGradient id="SVGID_3_" gradientUnits="userSpaceOnUse" x1="249.4645" y1="103.45" x2="249.4645" y2="318.831">
			<stop  offset="2.747250e-02" style="stop-color:#F8F8F7"/>
			<stop  offset="4.931305e-02" style="stop-color:#F8F8F7"/>
			<stop  offset="0.4286" style="stop-color:#F4F4F3"/>
			<stop  offset="0.5899" style="stop-color:#EFF0EF"/>
			<stop  offset="0.7803" style="stop-color:#E1E3E3"/>
			<stop  offset="0.9846" style="stop-color:#C9CECF"/>
			<stop  offset="1" style="stop-color:#C7CCCD"/>
		</linearGradient>
		<path class="st2" d="M357.2,211.1c0,59.5-48.2,107.7-107.7,107.7c-59.5,0-107.7-48.2-107.7-107.7c0-59.5,48.2-107.7,107.7-107.7
			C308.9,103.4,357.2,151.7,357.2,211.1z"/>
	</g>
</g>
<g>
	<path class="st3" d="M269.3,232.1c-0.5,0-0.9,0.2-1.2,0.5c-0.2,0.3-0.4,0.7-0.4,1.2c0,0.3,0,0.5,0.1,0.7c0.1,0.2,0.2,0.4,0.3,0.5
		s0.3,0.3,0.5,0.3c0.2,0.1,0.4,0.1,0.6,0.1c0.1,0,0.2,0,0.3,0c0.1,0,0.2,0,0.2,0v-1.8h1.2v2.6c-0.1,0.1-0.4,0.1-0.7,0.2
		c-0.3,0.1-0.7,0.1-1.1,0.1c-0.4,0-0.7-0.1-1.1-0.2c-0.3-0.1-0.6-0.3-0.8-0.5s-0.4-0.5-0.5-0.8c-0.1-0.3-0.2-0.7-0.2-1.1
		c0-0.4,0.1-0.8,0.2-1.2c0.1-0.3,0.3-0.6,0.6-0.9c0.2-0.2,0.5-0.4,0.8-0.5c0.3-0.1,0.7-0.2,1-0.2c0.2,0,0.5,0,0.7,0
		c0.2,0,0.4,0.1,0.5,0.1c0.1,0,0.3,0.1,0.4,0.1c0.1,0,0.2,0.1,0.2,0.1l-0.3,0.9c-0.2-0.1-0.3-0.2-0.6-0.2
		C269.7,232.2,269.5,232.1,269.3,232.1z"/>
	<path class="st3" d="M285.3,231.2c0.8,0,1.4,0.1,1.8,0.4c0.4,0.3,0.6,0.7,0.6,1.3c0,0.4-0.1,0.7-0.3,0.9c-0.2,0.2-0.4,0.4-0.7,0.5
		c0.1,0.1,0.2,0.3,0.3,0.4c0.1,0.2,0.2,0.3,0.3,0.5c0.1,0.2,0.2,0.4,0.3,0.6c0.1,0.2,0.2,0.4,0.3,0.6h-1.3c-0.1-0.2-0.2-0.3-0.3-0.5
		c-0.1-0.2-0.2-0.3-0.3-0.5c-0.1-0.2-0.2-0.3-0.3-0.5c-0.1-0.1-0.2-0.3-0.3-0.4H285v1.9h-1.2v-5.1c0.3,0,0.5-0.1,0.8-0.1
		C284.9,231.2,285.1,231.2,285.3,231.2z M285.4,232.2c-0.1,0-0.2,0-0.2,0c-0.1,0-0.1,0-0.2,0v1.4h0.3c0.4,0,0.8-0.1,0.9-0.2
		c0.2-0.1,0.3-0.3,0.3-0.6c0-0.3-0.1-0.4-0.3-0.5C286,232.2,285.8,232.2,285.4,232.2z"/>
	<path class="st3" d="M302.6,236.5c-0.4,0-0.7-0.1-0.9-0.2c-0.3-0.1-0.5-0.2-0.7-0.4s-0.3-0.4-0.4-0.7c-0.1-0.3-0.1-0.5-0.1-0.8
		v-3.2h1.2v3.1c0,0.2,0,0.4,0.1,0.5c0,0.1,0.1,0.3,0.2,0.4c0.1,0.1,0.2,0.2,0.3,0.2c0.1,0,0.2,0.1,0.4,0.1c0.3,0,0.5-0.1,0.7-0.3
		c0.2-0.2,0.3-0.5,0.3-0.9v-3.1h1.2v3.2c0,0.3,0,0.6-0.1,0.8c-0.1,0.3-0.2,0.5-0.4,0.7c-0.2,0.2-0.4,0.3-0.7,0.4
		C303.3,236.5,302.9,236.5,302.6,236.5z"/>
	<path class="st3" d="M319.2,231.2c0.8,0,1.4,0.1,1.8,0.4c0.4,0.3,0.6,0.7,0.6,1.3c0,0.6-0.2,1.1-0.6,1.4c-0.4,0.3-1,0.4-1.8,0.4
		h-0.4v1.7h-1.2v-5.1c0.3,0,0.5-0.1,0.8-0.1C318.7,231.2,319,231.2,319.2,231.2z M319.3,232.2c-0.1,0-0.2,0-0.3,0
		c-0.1,0-0.2,0-0.2,0v1.5h0.4c0.4,0,0.7-0.1,0.9-0.2c0.2-0.1,0.3-0.3,0.3-0.6c0-0.1,0-0.3-0.1-0.4c-0.1-0.1-0.1-0.2-0.2-0.2
		c-0.1-0.1-0.2-0.1-0.4-0.1C319.6,232.2,319.4,232.2,319.3,232.2z"/>
</g>
<g>
	<path class="st4" d="M283.3,226.2c0-10.6,0-21.1,0-31.7c0.2,0,0.3-0.1,0.4-0.1c5.4,0,10.7-0.1,16.1,0.1c5,0.2,9.2,2.1,12,6.3
		c1.9,2.8,2.6,5.9,2.6,9.2c0,3.5-0.7,6.9-2.7,9.9c-2.5,3.7-6.1,5.7-10.5,6c-3.9,0.3-7.9,0.2-11.9,0.2
		C287.4,226.2,285.4,226.2,283.3,226.2z M293.5,216.8c1.9,0,3.8,0.1,5.6-0.1c0.9-0.1,2-0.6,2.7-1.2c2.1-1.7,2.7-5.4,1.6-8.3
		c-0.6-1.5-1.6-2.6-3.1-3.1c-2.2-0.8-4.5-0.5-6.8-0.5C293.5,208.1,293.5,212.5,293.5,216.8z"/>
	<path class="st4" d="M330.9,226.2c-3.4,0-6.6,0-10,0c0-10.5,0-21.1,0-31.7c3.3,0,6.6,0,10,0C330.9,205,330.9,215.5,330.9,226.2z"/>
</g>
<path class="st4" d="M273.1,216.7h-9.6c-1.3,0-2.3-1-2.3-2.3v-7.3c0-1.7,1.4-3.1,3.1-3.1h8.9l3.1-9.6h-18.1c-4.1,0-7.3,3.3-7.3,7.3
	V219c0,4,3.3,7.3,7.3,7.3h18.1L273.1,216.7z"/>
<g>
	<polygon class="st5" points="204.8,215.7 204.8,233 189.1,224.4 189.1,207 	"/>
	<polygon class="st6" points="204.8,215.7 204.8,233 220.4,224.4 220.4,207 	"/>
	<polygon class="st4" points="173.5,198.3 173.5,233 204.8,250.4 225.6,238.8 210,230.1 204.8,233 189.1,224.4 189.2,207 
		194.3,204.2 178.7,195.5 	"/>
	<polygon class="st3" points="204.8,181 183.9,192.6 199.5,201.2 204.8,198.4 220.4,207 220.5,224.3 215.4,227.1 230.8,235.9 
		236,233 236,198.3 	"/>
</g>
</svg>
