<?xml version="1.0" encoding="utf-8"?>
<!-- Generator: Adobe Illustrator 22.1.0, SVG Export Plug-In . SVG Version: 6.00 Build 0)  -->
<svg version="1.1" id="Layer_1" xmlns="http://www.w3.org/2000/svg" xmlns:xlink="http://www.w3.org/1999/xlink" x="0px" y="0px"
	 viewBox="0 0 200 89" style="enable-background:new 0 0 200 89;" xml:space="preserve">
<style type="text/css">
	.st0{fill:#0071BC;}
	.st1{fill:#1E4B9B;}
	.st2{fill-rule:evenodd;clip-rule:evenodd;fill:#C4CCD9;}
	.st3{fill-rule:evenodd;clip-rule:evenodd;fill:#CFD3DB;}
</style>
<g>
	<g>
		<path class="st0" d="M121.4,65c-0.7,0-1.2,0.2-1.5,0.6c-0.3,0.4-0.5,0.9-0.5,1.6c0,0.3,0,0.6,0.1,0.9c0.1,0.3,0.2,0.5,0.3,0.7
			c0.2,0.2,0.3,0.3,0.6,0.4c0.2,0.1,0.5,0.2,0.8,0.2c0.2,0,0.3,0,0.4,0c0.1,0,0.2,0,0.3,0V67h1.5v3.3c-0.2,0.1-0.5,0.1-0.9,0.2
			c-0.4,0.1-0.9,0.1-1.5,0.1c-0.5,0-0.9-0.1-1.4-0.2c-0.4-0.2-0.7-0.4-1-0.7c-0.3-0.3-0.5-0.7-0.7-1.1c-0.2-0.4-0.2-0.9-0.2-1.5
			c0-0.6,0.1-1,0.3-1.5c0.2-0.4,0.4-0.8,0.7-1.1c0.3-0.3,0.7-0.5,1.1-0.7c0.4-0.2,0.8-0.2,1.3-0.2c0.3,0,0.6,0,0.8,0.1
			c0.3,0,0.5,0.1,0.6,0.1c0.2,0.1,0.3,0.1,0.4,0.2c0.1,0.1,0.2,0.1,0.3,0.1l-0.4,1.2c-0.2-0.1-0.4-0.2-0.7-0.3
			C122,65,121.8,65,121.4,65z"/>
		<path class="st0" d="M141.8,63.8c1,0,1.8,0.2,2.3,0.5c0.5,0.4,0.8,0.9,0.8,1.6c0,0.5-0.1,0.8-0.3,1.1c-0.2,0.3-0.5,0.5-0.9,0.7
			c0.1,0.2,0.3,0.4,0.4,0.6c0.1,0.2,0.3,0.4,0.4,0.7c0.1,0.2,0.3,0.5,0.4,0.7c0.1,0.3,0.3,0.5,0.4,0.7h-1.7
			c-0.1-0.2-0.2-0.4-0.4-0.7c-0.1-0.2-0.3-0.4-0.4-0.6c-0.1-0.2-0.3-0.4-0.4-0.6c-0.1-0.2-0.3-0.4-0.4-0.5h-0.7v2.4h-1.5v-6.5
			c0.3-0.1,0.7-0.1,1-0.1C141.3,63.8,141.6,63.8,141.8,63.8z M141.9,65c-0.1,0-0.2,0-0.3,0c-0.1,0-0.2,0-0.2,0v1.8h0.4
			c0.6,0,1-0.1,1.2-0.2c0.2-0.1,0.4-0.4,0.4-0.7c0-0.3-0.1-0.6-0.4-0.7C142.8,65.1,142.4,65,141.9,65z"/>
		<path class="st0" d="M163.8,70.6c-0.5,0-0.9-0.1-1.2-0.2c-0.3-0.1-0.6-0.3-0.8-0.5c-0.2-0.2-0.4-0.5-0.5-0.8
			c-0.1-0.3-0.2-0.7-0.2-1.1v-4.1h1.5v4c0,0.3,0,0.5,0.1,0.7c0.1,0.2,0.1,0.3,0.2,0.5c0.1,0.1,0.2,0.2,0.4,0.3
			c0.1,0.1,0.3,0.1,0.5,0.1c0.4,0,0.7-0.1,0.9-0.3c0.2-0.2,0.3-0.6,0.3-1.1v-4h1.5v4.1c0,0.4-0.1,0.7-0.2,1.1
			c-0.1,0.3-0.3,0.6-0.5,0.8c-0.2,0.2-0.5,0.4-0.8,0.5S164.2,70.6,163.8,70.6z"/>
		<path class="st0" d="M184.9,63.8c1,0,1.7,0.2,2.3,0.5c0.5,0.3,0.8,0.9,0.8,1.7c0,0.8-0.3,1.4-0.8,1.7c-0.5,0.4-1.3,0.5-2.3,0.5
			h-0.5v2.2h-1.5v-6.5c0.3-0.1,0.7-0.1,1-0.1C184.3,63.8,184.6,63.8,184.9,63.8z M185,65c-0.1,0-0.2,0-0.3,0c-0.1,0-0.2,0-0.3,0V67
			h0.5c0.5,0,0.9-0.1,1.2-0.2c0.3-0.1,0.4-0.4,0.4-0.8c0-0.2,0-0.3-0.1-0.5c-0.1-0.1-0.2-0.2-0.3-0.3c-0.1-0.1-0.3-0.1-0.5-0.2
			C185.4,65,185.2,65,185,65z"/>
	</g>
	<g>
		<path class="st1" d="M139.3,57.4c0-13.5,0-26.8,0-40.2c0.2,0,0.4-0.1,0.5-0.1c6.8,0,13.6-0.1,20.4,0.1c6.3,0.2,11.6,2.6,15.3,8
			c2.4,3.5,3.3,7.5,3.3,11.7c0,4.5-0.9,8.8-3.4,12.5c-3.2,4.7-7.8,7.2-13.3,7.6c-5,0.4-10.1,0.2-15.1,0.3
			C144.5,57.4,142,57.4,139.3,57.4z M152.3,45.5c2.4,0,4.8,0.2,7.1-0.1c1.2-0.1,2.5-0.8,3.4-1.6c2.7-2.2,3.5-6.9,2-10.5
			c-0.8-1.9-2-3.3-3.9-4c-2.8-1-5.7-0.6-8.6-0.6C152.3,34.5,152.3,40,152.3,45.5z"/>
		<path class="st1" d="M199.7,57.4c-4.3,0-8.4,0-12.7,0c0-13.4,0-26.8,0-40.2c4.2,0,8.4,0,12.7,0C199.7,30.5,199.7,43.9,199.7,57.4z
			"/>
	</g>
	<path class="st1" d="M126.4,45.4h-12.2c-1.6,0-3-1.3-3-3v-9.3c0-2.2,1.7-3.9,3.9-3.9h11.2l4-12.2h-23c-5.2,0-9.3,4.2-9.3,9.3v21.9
		c0,5.1,4.2,9.3,9.3,9.3h23L126.4,45.4z"/>
	<g>
		<polygon class="st2" points="39.5,44.1 39.5,66.1 19.6,55.1 19.6,33.1 		"/>
		<polygon class="st3" points="39.5,44.1 39.5,66.1 59.4,55.1 59.4,33.1 		"/>
		<polygon class="st1" points="-0.3,22 -0.3,66.1 39.5,88.2 66,73.5 46.1,62.4 39.5,66.1 19.6,55.1 19.8,33 26.2,29.5 6.4,18.4 		
			"/>
		<polygon class="st0" points="39.5,0 13,14.7 32.9,25.7 39.5,22.1 59.4,33.1 59.5,55 53,58.6 72.6,69.8 79.2,66.1 79.2,22 		"/>
	</g>
</g>
</svg>
